<svg xmlns="http://www.w3.org/2000/svg" viewBox="0 0 1920 1080">
  <defs>
    <linearGradient id="sky" x2="0" y2="1">
      <stop stop-color="#020617"/>
      <stop offset=".55" stop-color="#0f1d42"/>
      <stop offset="1" stop-color="#172554"/>
    </linearGradient>
    <linearGradient id="neon">
      <stop stop-color="#22d3ee"/><stop offset="1" stop-color="#2563eb"/>
    </linearGradient>
    <pattern id="grid" width="80" height="80" patternUnits="userSpaceOnUse">
      <path d="M80 0H0v80" fill="none" stroke="#22d3ee" stroke-opacity=".09"/>
    </pattern>
    <filter id="glow"><feGaussianBlur stdDeviation="8"/></filter>
  </defs>
  <rect width="1920" height="1080" fill="url(#sky)"/>
  <rect width="1920" height="1080" fill="url(#grid)"/>
  <g fill="#22d3ee" opacity=".2" filter="url(#glow)">
    <rect x="220" y="220" width="280" height="500"/><rect x="1290" y="140" width="380" height="650"/>
  </g>
  <path d="M0 770h205V360h235v410h115V245h315v525h150V430h260v340h105V280h330v490h205v310H0Z" fill="#050a18"/>
  <g fill="url(#neon)">
    <rect x="245" y="410" width="150" height="12"/><rect x="245" y="465" width="95" height="12"/>
    <rect x="590" y="300" width="235" height="14"/><rect x="590" y="360" width="160" height="14"/>
    <rect x="1050" y="485" width="185" height="12"/><rect x="1420" y="340" width="210" height="15"/>
  </g>
  <g fill="#a5f3fc" opacity=".65">
    <rect x="270" y="530" width="24" height="24"/><rect x="325" y="530" width="24" height="24"/>
    <rect x="620" y="440" width="26" height="26"/><rect x="685" y="440" width="26" height="26"/>
    <rect x="1080" y="570" width="24" height="24"/><rect x="1460" y="430" width="28" height="28"/>
  </g>
  <path d="m0 900 520-105 350 110 390-80 660 85v170H0Z" fill="#020617"/>
  <path d="M0 965h1920" stroke="#22d3ee" stroke-opacity=".5" stroke-width="4"/>
</svg>
